<svg xmlns="http://www.w3.org/2000/svg" data-name="Layer 1" viewBox="0 0 517 516"><path fill="#4285f4" d="M264 209a2.4 2.4 0 0 0-2.32-1.25 2.11 2.11 0 0 0-2.09 1.78c-.48.15 0 3.42 0 3.42a5.8 5.8 0 0 0 .56.89 2.4 2.4 0 0 0 4.16-.76A4.07 4.07 0 0 0 264 209Zm-3.52 2.66a1.28 1.28 0 0 0-.44-.32l-.05-.08c-.16-.28-.1-.64-.35-.88l.33-.88c.24-.11.48-.31.72-.31s.58.31.71.65c.36.98.18 1.34-.9 1.83Zm2.1 1.46a.69.69 0 0 1-.71-.53.76.76 0 0 1 .63-.9.78.78 0 0 1 .83.74.79.79 0 0 1-.73.7Z" class="color000000 svgShape"/><path fill="#ea4335" d="M250.08 209.69a2.2 2.2 0 0 0-3.64 0 5 5 0 0 0 .09 6 2.22 2.22 0 0 0 3.64-.14 4.45 4.45 0 0 0 .88-2.8 5.13 5.13 0 0 0-.97-3.06Zm-2.76 3.31c-.42.12-.91-.29-1-.83a2.08 2.08 0 0 1 0-.61.84.84 0 0 1 .67-.72.79.79 0 0 1 .86.44 3.56 3.56 0 0 1 .21.64c-.06.58-.29.91-.74 1.08Zm2 1.59c-.41 0-.86-.49-.74-.86a.8.8 0 0 1 .73-.64c.44 0 .88.49.77.87a.79.79 0 0 1-.75.6Z" class="color080707 svgShape"/><path fill="#4285f4" d="M351.78 229a24 24 0 0 0-2.47-1.27c-4.31-1.75-8.49-3.78-12.73-5.67a78.77 78.77 0 0 1-8.73-4.58 36.56 36.56 0 0 1-7.22-5.73c-2.05-2.1-3.9-4.38-5.77-6.65a18.45 18.45 0 0 0-2.38-2.46 7.06 7.06 0 0 0-4.09-1.7 7.42 7.42 0 0 1-1.49-.2c-1.39-.36-1.79-.82-1.79-2.25a19.6 19.6 0 0 1 1.36-7.35 38.15 38.15 0 0 1 7.5-11.92 9.72 9.72 0 0 1 2.52-2 4 4 0 0 1 5.9 3.38v2.37a2 2 0 0 0 .35 1.21.81.81 0 0 0 .92.37.61.61 0 0 0 .44-.65c0-1.07-.06-2.15 0-3.22a4.72 4.72 0 0 0-1.81-4c-1.74-1.45-3.67-2.23-5.94-1.26a1.36 1.36 0 0 1-1.39-.22c-4.88-3.24-8.58-7.33-9.74-13.3a11.21 11.21 0 0 0-.71-2.24 4.18 4.18 0 0 0-5.11-2.43 8.77 8.77 0 0 1-1.67.38 1.69 1.69 0 0 1-1.85-.79l-.34-.55a3.24 3.24 0 0 0-3.72-1.45 10.22 10.22 0 0 0-1.23.36 2.9 2.9 0 0 1-2.67-.19 3.83 3.83 0 0 0-4.42.4 13.44 13.44 0 0 0-1.62 1.4 2.42 2.42 0 0 1-2.33.78 4.23 4.23 0 0 0-3.06.71 16.26 16.26 0 0 0-3.34 2.67c-.56.54-1 1.35-1.7 1.56a5.7 5.7 0 0 1-2.28-.29 4.3 4.3 0 0 1-.12-.65v-.86a10.93 10.93 0 0 0-5-8.14 2.37 2.37 0 0 0-1.59-.55.76.76 0 0 0-.64.51.59.59 0 0 0 .23.75c.24.14.55.18.78.34a9 9 0 0 1 4.54 7.79 2.87 2.87 0 0 1-2.27 3 4 4 0 0 1-5-2.28 45.8 45.8 0 0 1-1.68-4.4c-.18-.49.15-.8.53-1.05s1.12-.16 1.68-.26c.36-.07.69-.27.65-.7a.8.8 0 0 0-.69-.71 2.85 2.85 0 0 0-2.46.39 1.44 1.44 0 0 1-1.73.06 9.09 9.09 0 0 0-8.25.24 3.31 3.31 0 0 1-1.62.34 23.55 23.55 0 0 0-8 1.53 3 3 0 0 1-2.05.16 4.71 4.71 0 0 0-2.55-.13 14.55 14.55 0 0 0-5 1.89c-3.56 2.41-6.22 5.47-7.05 9.84-.09.42-.19.84-.29 1.26a28.15 28.15 0 0 0-1 8.07 47 47 0 0 0 1 7.65 16.39 16.39 0 0 0 10 12c.72.31 1.76.22 2.09.93a6.54 6.54 0 0 1 .14 2.32c.05 1.22.12 2.43.19 3.65s.11 2.58.24 3.86a2.63 2.63 0 0 1-.68 2.15c-.9 1-1.69 2.13-2.51 3.21a88.53 88.53 0 0 0-8.4 12.95 27.81 27.81 0 0 0-2 4.52c-1.35 4.52.57 7.63 5.16 8.5a25.34 25.34 0 0 0 13.71-1.34c.45-.17.85-.59 1.42-.3.66 1.07 1.32 2.17 2 3.24a16.38 16.38 0 0 0 4.57 4.48 11 11 0 0 0 6.24 2 47.67 47.67 0 0 0 4.93-.16 130.31 130.31 0 0 0 13.32-2.23 5.47 5.47 0 0 1 2.13-.12 1.9 1.9 0 0 1 1.38.93 3.21 3.21 0 0 1-.49 3.57 4.09 4.09 0 0 1-2.27 1.13c-.43.06-.86 0-1.28.12a2.75 2.75 0 0 0-2.42 3.4 5.68 5.68 0 0 0 1.16 2.74 12.42 12.42 0 0 0 4.28 3.5 8.26 8.26 0 0 0 4.17.72 18.83 18.83 0 0 0 5.78-1.51 27.2 27.2 0 0 0 9-5.67 12.9 12.9 0 0 0 3.84-11.14c-.05-.47-.38-.93-.13-1.43a2.64 2.64 0 0 1 1.47-.13 43.5 43.5 0 0 0 9-.72c4.77-.94 9.53-2 14.26-3.06a200.48 200.48 0 0 0 24.24-7.89 5.3 5.3 0 0 0 1-.46c.56-.37.44-.79.06-1.2a1.63 1.63 0 0 1 1.34.17c.83.41 1.68.78 2.51 1.2.43.22.81.29 1.14-.13s.21-.75-.4-1.11Zm-79.18-64.65a6.24 6.24 0 0 1 1-1.4 36.9 36.9 0 0 1 2.85-2.6 4 4 0 0 1 3.37-1 3.33 3.33 0 0 0 2.92-1c.53-.47 1-1 1.6-1.42a2.51 2.51 0 0 1 3-.28 3.82 3.82 0 0 0 3.69.23c.26-.11.56-.14.82-.24a1.76 1.76 0 0 1 2.4.79c1.14 2.13 2.94 2.23 5 1.74 2.51-.61 3.54 0 4.25 2.46.17.62.32 1.25.46 1.87a18 18 0 0 0 4.22 8.08 28 28 0 0 0 5.95 5.14c-1.13 1.31-2.17 2.47-3.17 3.67a30.47 30.47 0 0 0-4.37 6.86 4.71 4.71 0 0 1-2.75 2.45 16.79 16.79 0 0 1-8.64.92 6.41 6.41 0 0 1-3.61-1.75 13.26 13.26 0 0 1-3.94-6 50.49 50.49 0 0 1-1.27-6.08c-.29-1.69-.55-3.38-.89-5.06a23.65 23.65 0 0 0-.85-2.87 6.47 6.47 0 0 0-1.45-2.36 3.15 3.15 0 0 0-4.06-.82c-1.44.62-2.87 1.28-4.3 1.92-.52.23-1 .48-1.57.68a.69.69 0 0 1-1-.53 4.81 4.81 0 0 1 .34-3.4Zm-23.05-7.53a9.27 9.27 0 0 1 5.27-.17 2.81 2.81 0 0 1 1.9 1.58c.19.46.42.91.58 1.38a16 16 0 0 0 2.32 4.94 3.55 3.55 0 0 1-1.52 1.3 2.89 2.89 0 0 1-2.67 0 5.84 5.84 0 0 1-2.18-1.69 61 61 0 0 1-4.08-6.53.6.6 0 0 1 .38-.81Zm-4.33.83a6.28 6.28 0 0 1 1.07-.07 1.34 1.34 0 0 1 1.38.76c.83 1.5 1.74 3 2.63 4.43.45.73 1 1.43 1.44 2.14s.54 1.17-.07 1.87a4.1 4.1 0 0 1-3.86 1.42 7.84 7.84 0 0 1-4.34-2.16 1.49 1.49 0 0 1-.5-.68c-.63-2.33-2.16-4.16-3.59-6.42 2.07-.46 3.95-.89 5.84-1.29ZM234 197.23c-.58.4-1 .07-1.32-.09a15.52 15.52 0 0 1-8.16-7.53 13.71 13.71 0 0 1-1.17-3.44 38.73 38.73 0 0 1-1-9.36 18.27 18.27 0 0 1 .8-4.63 7.1 7.1 0 0 1 1.43-2.61 3.31 3.31 0 0 1 4-1.07 9.91 9.91 0 0 1 1.36.64 9.33 9.33 0 0 1 1.06.71c.52.37 1 .75 1.6 1.19a33.49 33.49 0 0 0-2.76 7.43c-.36 1.53-.72 3.07-1 4.62a13.39 13.39 0 0 0 .53 6.55c.69 1.94 1.69 3.48 3.94 3.73.44 0 .59.37.6.75.09 1.07.09 2.14.09 3.11Zm-2.1-28.81a11.64 11.64 0 0 0-3-1.57 4.41 4.41 0 0 0-3.54.14.62.62 0 0 1-.88 0 13.87 13.87 0 0 1 8.88-7.5 5.13 5.13 0 0 1 6 2.16c.45.82 1 1.57 1.45 2.39a7.87 7.87 0 0 1 .93 4.13c-.1 2.24-1.38 3.35-3.65 3.15a8.09 8.09 0 0 1-3.42-1.16c-1.04-.53-1.93-1.16-2.81-1.74Zm7.81 68.93c-1.21.44-2.42.88-3.66 1.2a21.65 21.65 0 0 1-10.4.19 4.21 4.21 0 0 1-3.36-2.67 4 4 0 0 1-.2-2.11 14.42 14.42 0 0 1 1.35-4.05 62.39 62.39 0 0 1 4.66-8.19c1.94-2.83 4-5.6 6-8.39a5.81 5.81 0 0 1 .66-.6c.47 2.94.88 5.62 1.35 8.3a86.68 86.68 0 0 0 2.85 12.3c.34 1 .71 2 1.14 3 .14.52.02.85-.43 1.02Zm33.16 7.08c-2.61.32-5.19 1-7.79 1.45A55.46 55.46 0 0 1 254.6 247a11 11 0 0 1-7.11-2.56 17.88 17.88 0 0 1-4.61-5.86 42.6 42.6 0 0 1-3.81-10.67 154.22 154.22 0 0 1-2.94-17.34 128.13 128.13 0 0 1-.53-16.57v-6.13c4.14-2.24 11-3.46 15-2.65l-2 1a7.8 7.8 0 0 0-2.72 2 1 1 0 0 0-.24 1.18 1.19 1.19 0 0 0 1.05.64A9.32 9.32 0 0 0 248 190a35.76 35.76 0 0 1 19.61 3.34 4.51 4.51 0 0 1 .54.35c0 1.18-.92.44-1.39.58s-1.25-.1-1.85.18c-.63.13-1.26.24-1.88.39a.9.9 0 0 0-.7.75 1 1 0 0 0 .68 1 7.1 7.1 0 0 0 .82.25 34.79 34.79 0 0 1 11.48 6.54A86.2 86.2 0 0 1 285.67 214c.14.16.25.35.38.52a1.75 1.75 0 0 0 2.05.75c1.51-.41 3-.7 4.56-1.12a4.22 4.22 0 0 1 5.45 3.34 11.6 11.6 0 0 1-.78 6.1 23.65 23.65 0 0 1-2 3.79 27.45 27.45 0 0 0-2.45 4.76 8.28 8.28 0 0 0-.44 5.46 1.11 1.11 0 0 1-.38 1.3 13 13 0 0 1-4.9 3 47.57 47.57 0 0 1-7.54 1.63c-2.25.29-4.51.63-6.79.9Zm23.13 1.5a11.15 11.15 0 0 1-3.4 7.85 25.29 25.29 0 0 1-8.25 5.24 18.07 18.07 0 0 1-5.54 1.54 4.71 4.71 0 0 1-2.91-.43c0-.33.26-.47.5-.58a20.72 20.72 0 0 0 4.74-3.29 58 58 0 0 0 11.86-14.5c.25-.43.48-.87.84-1.53a7.55 7.55 0 0 1 2.16 5.7ZM347.22 229v-.09c-.42-.14-.77.08-1.16.22-6.27 2.18-12.51 4.49-18.9 6.32a172 172 0 0 1-22 4.83 40.51 40.51 0 0 1-7.71.38 2.1 2.1 0 0 1-1.94-1.09 9.59 9.59 0 0 0-.74-1.06A5 5 0 0 1 294 234a23.14 23.14 0 0 1 3-6.36 1.16 1.16 0 0 1 .68-.47 14.45 14.45 0 0 0 7-5.12 20.57 20.57 0 0 0 4.36-11c.28-2.48.58-5 .87-7.46a1.46 1.46 0 0 1 .18-.35c.41-.12.67.17.95.37a14.94 14.94 0 0 1 2.58 2.57c1.14 1.38 2.28 2.76 3.44 4.12a42.55 42.55 0 0 0 11.9 9.74c5.2 2.88 10.64 5.23 16.07 7.63.71.32 1.44.62 2.15.95.05 0 0 .16 0 .28h.06ZM452.61 371.8c-.27 0-.36-.2-.42-.41a1.84 1.84 0 0 1 .43-1.6c.89-1.29 1.79-2.58 2.76-3.81 2.68-3.42 5.41-6.8 8.12-10.2q4.38-5.52 8.76-11c1.37-1.73 2.72-3.48 4.08-5.22a5.4 5.4 0 0 1 .73-.78.75.75 0 0 1 1-.1.68.68 0 0 1 .12 1c-.34.54-.69 1.08-1.08 1.59l-11.2 14.3c-1.8 2.31-3.51 4.68-5.39 6.91-2.29 2.74-4.51 5.52-6.59 8.41a6 6 0 0 1-.91.9c-.11-.01-.28-.02-.41.01ZM382.42 31.4c-.06.13-.19.45-.34.77a141.67 141.67 0 0 1-7.32 13.07c-2.55 4-5.16 8-7.74 12.07-1.11 1.74-2.22 3.49-3.34 5.23a5.35 5.35 0 0 1-.63.85.55.55 0 0 1-.76.15.68.68 0 0 1-.33-.73 6.54 6.54 0 0 1 .55-1.37c.91-1.54 1.81-3.08 2.79-4.57q5.51-8.29 10.63-16.82c1.1-1.84 2.07-3.75 3.1-5.62.56-1 1.14-2 1.69-3a1.64 1.64 0 0 1 .95-.8c.33-.09.8.25.75.77ZM461.56 115.41a1.76 1.76 0 0 1-.39 1.27 73.59 73.59 0 0 0-3.5 6.63c-2.5 4.81-5 9.65-7.48 14.45-1.3 2.46-2.69 4.87-4.06 7.29a6.35 6.35 0 0 1-.77 1 .77.77 0 0 1-1 .18.67.67 0 0 1-.23-.93c.26-.59.54-1.17.85-1.73 1.52-2.82 3.1-5.62 4.59-8.46 2.65-5.06 5.24-10.15 7.87-15.22.66-1.26 1.37-2.5 2.1-3.73a6.84 6.84 0 0 1 .95-1.14.53.53 0 0 1 .76-.09 1.51 1.51 0 0 1 .31.48ZM450.49 275.56a.47.47 0 0 1-.45-.4 1.63 1.63 0 0 1 .33-1.41c.78-1.19 1.53-2.41 2.38-3.55q5.63-7.56 10.62-15.55c1.63-2.6 3.39-5.12 5.08-7.68a2.29 2.29 0 0 1 1.29-1.06.49.49 0 0 1 .57.18 1.26 1.26 0 0 1 .17.57c0 .12-.1.26-.18.38-3.08 4.8-6.1 9.65-9.27 14.4-2.37 3.55-4.94 7-7.42 10.46-.75 1.05-1.49 2.09-2.26 3.12a1.11 1.11 0 0 1-.86.54ZM96.25 316.35a3 3 0 0 1-.38.71c-2 2.45-3.69 5.07-5.42 7.69l-6.81 10.36-5.51 8.4a2.83 2.83 0 0 1-.43.48.57.57 0 0 1-.77.08.66.66 0 0 1-.29-.75 16.17 16.17 0 0 1 1.12-2.32c1.44-2.3 2.93-4.56 4.41-6.83 2.17-3.35 4.31-6.73 6.55-10a80.12 80.12 0 0 1 5.83-7.91 2.11 2.11 0 0 1 1-.75c.31-.09.77.27.7.84ZM16.9 179.15a4.32 4.32 0 0 1-.41 1.66c-2.47 7.51-5 15-8 22.34-.53 1.32-1 2.67-1.52 4a4.21 4.21 0 0 1-.49.94.63.63 0 0 1-.72.31.75.75 0 0 1-.48-.66 3.51 3.51 0 0 1 .43-1.85c.89-2.48 1.83-4.95 2.74-7.42.82-2.2 1.66-4.4 2.45-6.61 1.3-3.63 2.55-7.26 3.83-10.89.26-.74.57-1.46.87-2.19.15-.37.4-.6.81-.48s.46.5.49.85ZM497 37.73a2 2 0 0 1-.22.59c-4.06 4.73-7.18 10.13-10.71 15.23-1.58 2.29-3.08 4.64-4.44 7.08a7.42 7.42 0 0 1-1 1.35.67.67 0 0 1-.59 0 .82.82 0 0 1-.35-.48 1.64 1.64 0 0 1 .27-1.23c.7-1.24 1.34-2.53 2.11-3.72 3.76-5.82 7.58-11.59 11.71-17.16a12 12 0 0 1 1.74-1.89.93.93 0 0 1 1-.21 2.5 2.5 0 0 1 .48.44ZM388.9 133.4a3.43 3.43 0 0 1-.75 1.57c-1.86 2.79-3.73 5.57-5.57 8.37-2.12 3.22-4.22 6.45-6.33 9.67a8.54 8.54 0 0 1-.73 1.05.53.53 0 0 1-.75.16.73.73 0 0 1-.35-.73 2.54 2.54 0 0 1 .25-.81 29 29 0 0 1 1.43-2.63q4-6.06 8.09-12.1c1-1.48 2-2.93 3.05-4.39a3.39 3.39 0 0 1 .54-.65.58.58 0 0 1 .78 0 2.21 2.21 0 0 1 .34.49ZM50.88 83.51a8.44 8.44 0 0 1-.31 1c-1.8 4.11-3.28 8.35-4.88 12.54-.78 2.06-1.55 4.13-2.35 6.19a4.28 4.28 0 0 1-.64 1.09.57.57 0 0 1-.77.13.67.67 0 0 1-.41-.69 11.7 11.7 0 0 1 .48-1.63c1.49-4 3-8 4.51-12 .71-1.86 1.51-3.69 2.3-5.52a3 3 0 0 1 1.1-1.54.76.76 0 0 1 .58-.09c.16.08.24.32.39.52ZM203.73 88.05a2.14 2.14 0 0 1-.24 1.33c-2.44 5.87-5 11.68-8 17.3-.27.5-.53 1-.83 1.5a.9.9 0 0 1-.94.37c-.31 0-.56-.24-.51-.55a3.36 3.36 0 0 1 .37-1c1.32-2.77 2.67-5.53 4-8.31 1.41-3 2.76-6.12 4.14-9.17a13.89 13.89 0 0 1 .93-1.69.55.55 0 0 1 .76-.17 1.45 1.45 0 0 1 .32.39ZM138.32 113.88a1.67 1.67 0 0 1-.13.44c-1.25 2.4-2.5 4.81-3.77 7.19-1.08 2-2.16 4-3.28 6-.73 1.31-1.52 2.57-2.29 3.85-.11.19-.21.38-.33.56-.28.43-.62.8-1.21.61-.42-.14-.51-.62-.16-1.29.93-1.76 1.9-3.51 2.86-5.25 1.34-2.43 2.7-4.85 4-7.28l2.27-4.12a2.21 2.21 0 0 1 1.35-1.27.58.58 0 0 1 .69.56ZM502.35 164.08a1.36 1.36 0 0 1-.27 1q-3.4 5.68-6.82 11.38c-1 1.65-2 3.28-3.05 4.91a7.89 7.89 0 0 1-.72 1.06c-.24.27-.56.48-.94.25a.63.63 0 0 1-.23-.92c.6-1.21 1.14-2.47 1.84-3.63q3.88-6.41 7.89-12.74a4.51 4.51 0 0 1 1.29-1.68.69.69 0 0 1 .8 0 1.08 1.08 0 0 1 .21.37ZM100.2 249.69a16.31 16.31 0 0 1 1.24-3.79c1-2.22 2-4.41 3-6.61s2.05-4.4 3.09-6.6a11.05 11.05 0 0 1 .76-1.28.58.58 0 0 1 .76-.19.73.73 0 0 1 .45.87 2.93 2.93 0 0 1-.24.59c-1.14 2.54-2.24 5.1-3.43 7.61s-2.29 4.92-3.3 7.44a24.59 24.59 0 0 1-1.1 2.32c-.16.32-.4.63-.82.56s-.36-.5-.41-.92ZM62.41 182.37c-.37 0-.77-.44-.7-.74.19-.83.4-1.66.64-2.48.93-3.14 2.21-6.17 3.36-9.23.7-1.87 1.42-3.73 2.12-5.6.1-.26.17-.55.28-.81.21-.5.61-.74 1-.62a1 1 0 0 1 .51 1.25c-1.19 3.28-2.4 6.56-3.58 9.84-.78 2.14-1.52 4.3-2.29 6.44a12.19 12.19 0 0 1-.68 1.57.64.64 0 0 1-.66.38ZM32.9 282.78a.73.73 0 0 1-.51-.63 2.38 2.38 0 0 1 .58-1.57c.84-1.32 1.72-2.63 2.59-3.94 2-3 4-6.1 5.72-9.29a17.86 17.86 0 0 1 1.15-1.81 1.93 1.93 0 0 1 .66-.5.75.75 0 0 1 .8.15.54.54 0 0 1 .12.75 181.12 181.12 0 0 1-9.7 15.65 8.64 8.64 0 0 1-1 1.09c-.1.08-.31.07-.41.1ZM408 91.26c-.44.08-.87-.39-.73-.69a13 13 0 0 1 1-1.89c.83-1.25 1.73-2.45 2.59-3.68 2-2.92 4.07-5.86 6.11-8.79a6.74 6.74 0 0 1 1.78-1.83.56.56 0 0 1 .77.14.53.53 0 0 1 .12.58 3.21 3.21 0 0 1-.39.76c-1.4 1.64-2.43 3.53-3.65 5.28-2.09 3-4.17 6-6.27 8.94a6.54 6.54 0 0 1-.87 1 1.21 1.21 0 0 1-.46.18ZM326.43 104.22c-.46.06-.93-.43-.76-.81.48-1 .93-2.09 1.51-3.07 2.13-3.55 4.31-7.06 6.47-10.59.45-.73.88-1.47 1.35-2.18a2.64 2.64 0 0 1 .62-.58c.27-.22.74 0 .85.36a1.5 1.5 0 0 1-.24 1.22c-1.1 1.92-2.18 3.85-3.33 5.74-1.88 3.12-3.8 6.2-5.7 9.3-.2.32-.38.61-.77.61ZM53.88 396.3c-.4 0-.82-.46-.74-.74a6.27 6.27 0 0 1 .46-1.18c1.06-2 2.17-4 3.21-6.06 1.33-2.61 2.71-5.18 4.26-7.67a3.12 3.12 0 0 1 1.13-1.26.73.73 0 0 1 .8.05.59.59 0 0 1 .17.77c-.22.44-.54.84-.78 1.27q-1.68 3.12-3.33 6.23c-1.28 2.4-2.56 4.79-3.82 7.19a3.11 3.11 0 0 1-.89 1.19 1.8 1.8 0 0 1-.47.21ZM498.79 441.49a1 1 0 0 1-.17.81c-.64 1.27-1.26 2.56-1.93 3.81-2 3.84-4.28 7.55-6.66 11.18a1.16 1.16 0 0 1-.82.61.75.75 0 0 1-.76-.28.8.8 0 0 1-.08-.6 10.26 10.26 0 0 1 .72-1.3c2.75-4.41 5.33-8.92 7.82-13.47a4.38 4.38 0 0 1 .77-1c.26-.25 1.06-.05 1.11.24ZM436.63 197.36a.84.84 0 0 1-.74-.88 3.19 3.19 0 0 1 .42-1c.93-1.36 1.85-2.72 2.83-4 2.15-2.85 4.34-5.67 6.5-8.51a3.9 3.9 0 0 1 1.16-1.23.71.71 0 0 1 .8 0 .58.58 0 0 1 .17.77 10.4 10.4 0 0 1-.93 1.44c-1.8 2.49-3.58 5-5.42 7.44-1.37 1.83-2.87 3.56-4.09 5.5a.79.79 0 0 1-.7.47ZM458.55 17a2 2 0 0 1-.36 1.29c-2.28 4.7-4.65 9.35-7.37 13.81a2.25 2.25 0 0 1-1.18 1.19.73.73 0 0 1-.59-.11.65.65 0 0 1-.24-.54 2 2 0 0 1 .26-.8c.61-1.14 1.23-2.27 1.87-3.38 1.94-3.34 3.82-6.71 5.53-10.18a4.85 4.85 0 0 1 1-1.63c.23-.2.5-.32.76-.11a1.38 1.38 0 0 1 .32.46ZM133.63 42a5.06 5.06 0 0 1-.19.53l-4.89 10.71c-.47 1-.93 2.08-1.41 3.11a3.26 3.26 0 0 1-1.22 1.71.71.71 0 0 1-.59 0 .67.67 0 0 1-.34-.49 4.88 4.88 0 0 1 .3-1.24c.33-.86.68-1.72 1.08-2.56q2.56-5.41 5.16-10.82a3.53 3.53 0 0 1 1-1.6.8.8 0 0 1 .59-.06.73.73 0 0 1 .51.71ZM337.07 146.1a.65.65 0 0 1-.46-.65 2.67 2.67 0 0 1 .28-1q1.07-2 2.2-3.91c1.83-3.14 3.68-6.26 5.52-9.39a2.12 2.12 0 0 1 .8-1 .63.63 0 0 1 .79.07.77.77 0 0 1 .19.56 6.05 6.05 0 0 1-.47 1.18c-1.8 3.4-3.63 6.79-5.7 10-.69 1.08-1.34 2.19-2 3.26a4.09 4.09 0 0 1-.72.78c-.12.12-.3.08-.43.1ZM100.63 184.79a1.66 1.66 0 0 1-.24 1.1c-2.24 3.64-4.22 7.43-6.6 11-.59.89-1.13 1.82-1.69 2.72a.75.75 0 0 1-.89.41.81.81 0 0 1-.39-1.08 14.18 14.18 0 0 1 1-2.12c1.71-2.8 3.45-5.57 5.18-8.35.71-1.15 1.42-2.3 2.14-3.45a2.42 2.42 0 0 1 .38-.51.61.61 0 0 1 .78-.12 1.38 1.38 0 0 1 .33.4ZM100.2 397.47a2.39 2.39 0 0 1-.29-.42 1.42 1.42 0 0 1 0-1.24 22.75 22.75 0 0 1 1.12-2.06q2.13-3.35 4.3-6.64a37.68 37.68 0 0 0 2.16-3.94 13.84 13.84 0 0 1 .74-1.29.42.42 0 0 1 .56-.13.74.74 0 0 1 .31.27 1.52 1.52 0 0 1 0 1.25 15.32 15.32 0 0 1-1.61 3.49c-1.4 2.14-2.8 4.29-4.17 6.45A27.26 27.26 0 0 0 101 397c-.08.31-.32.46-.8.47ZM73.87 38a1.94 1.94 0 0 1-.13.48c-2.15 4.51-4 9.13-5.8 13.8a8.68 8.68 0 0 1-.45 1c-.18.33-.44.58-.86.37a.85.85 0 0 1-.53-.85 6 6 0 0 1 .33-1.24c.52-1.41 1-2.83 1.59-4.21 1.2-2.82 2.45-5.63 3.69-8.43a3 3 0 0 1 1.15-1.51.75.75 0 0 1 1.01.59ZM469.21 307.8c-.29 0-.68-.5-.61-.77a5.41 5.41 0 0 1 .28-.8 20 20 0 0 1 2.21-3.66c2.06-2.81 4.12-5.62 5.92-8.62a3.45 3.45 0 0 1 .66-.82.63.63 0 0 1 .79-.06.6.6 0 0 1 .26.75 13.59 13.59 0 0 1-1 1.91c-1.17 1.86-2.38 3.72-3.6 5.55-1.35 2-2.73 4-4.1 6a1 1 0 0 1-.81.52ZM265.18 127.44a1.92 1.92 0 0 1-.36 1.28c-1 1.75-1.92 3.51-2.91 5.24-1.25 2.16-2.53 4.3-3.8 6.45a7.89 7.89 0 0 1-.7 1.07c-.28.34-.62.62-1.11.35a.79.79 0 0 1-.22-1.12q1.28-2.36 2.59-4.68c1.38-2.42 2.8-4.81 4.18-7.23a6 6 0 0 1 1.25-1.71c.23-.19.51-.32.77-.11a2 2 0 0 1 .31.46ZM10.87 144.2c.16-.66.32-1.58.61-2.45q1.65-4.86 3.36-9.69a10.72 10.72 0 0 1 1-1.91.67.67 0 0 1 .92-.28.7.7 0 0 1 .39.89c-.19.53-.44 1.05-.66 1.58-1.41 3.43-2.38 7-3.5 10.54-.22.67-.47 1.34-.73 2a.8.8 0 0 1-.81.57c-.4-.02-.64-.45-.58-1.25ZM152.9 152.35a.66.66 0 0 1-.58-.84 23.11 23.11 0 0 1 1-2.58c1.56-3.05 3.16-6.08 4.75-9.11a7.57 7.57 0 0 1 .7-1.07 1.61 1.61 0 0 1 .5-.39c.31-.18 1 .24.95.59a2.51 2.51 0 0 1-.23.81c-.66 1.35-1.32 2.7-2 4-1.29 2.46-2.6 4.92-3.9 7.38a6.54 6.54 0 0 1-.56.91.67.67 0 0 1-.63.3ZM135 398.55a.66.66 0 0 1-.7-.48 1.71 1.71 0 0 1 .2-1.23c.57-1.15 1.11-2.32 1.72-3.44 1.42-2.63 2.88-5.24 4.33-7.85a3.28 3.28 0 0 1 .64-.84.71.71 0 0 1 .58-.07.6.6 0 0 1 .48.63 4.54 4.54 0 0 1-.44 1.18q-2.85 5.51-5.72 11a4.34 4.34 0 0 1-.6.87 1.48 1.48 0 0 1-.49.23Z" class="color000000 svgShape"/><path fill="#070908" d="M224.8 203.75a.64.64 0 0 1-.48.63 1.45 1.45 0 0 1-1.22-.24c-1.39-.86-2.81-1.69-4.17-2.61a16.27 16.27 0 0 1-5.56-7.18 3 3 0 0 1-.22-.83.63.63 0 0 1 .37-.69.66.66 0 0 1 .78.17 6.1 6.1 0 0 1 .63 1.11 15.64 15.64 0 0 0 6.74 7.25c.87.49 1.71 1 2.56 1.56a1 1 0 0 1 .57.83Z" class="color090707 svgShape"/><path fill="#4285f4" d="M19.82 421c-.06.13-.17.46-.33.77-1.47 2.76-2.69 5.65-4.34 8.33-.44.72-.77 1.52-1.18 2.27a5.36 5.36 0 0 1-.72 1 .69.69 0 0 1-.56.17.64.64 0 0 1-.48-.63 1.32 1.32 0 0 1 .08-.62 16.89 16.89 0 0 1 1.09-2.54c1.35-2.26 2.46-4.65 3.69-7a21.19 21.19 0 0 1 1.35-2.17 1.58 1.58 0 0 1 .69-.44c.31-.14.77.28.71.86ZM172.44 65.66a5.63 5.63 0 0 1-.28.87c-.53 1.09-1.07 2.18-1.65 3.24-1 1.75-2 3.47-3 5.2a5.11 5.11 0 0 0-.71 2 1.2 1.2 0 0 1-1 1 .89.89 0 0 1-1-.24.78.78 0 0 1-.06-.81c.17-.39.34-.79.54-1.16q2.44-4.65 4.9-9.28a12.2 12.2 0 0 1 1-1.42.64.64 0 0 1 .75-.25c.37.19.45.4.51.85ZM264.73 64.05c.11.54-1.08.93-1.24 1.33-2.44 5.87-5 11.68-8 17.3-.27.5-.53 1-.83 1.5a.9.9 0 0 1-.94.37c-.31 0-.56-.24-.51-.55a3.36 3.36 0 0 1 .37-1c1.32-2.77 2.67-5.53 4-8.31 1.41-3 2.76-6.12 4.14-9.17a13.89 13.89 0 0 1 .93-1.69.55.55 0 0 1 .76-.17c.16.1 1.27.3 1.34.39M193.63 18a5.06 5.06 0 0 1-.19.53l-4.89 10.71c-.47 1-.93 2.08-1.41 3.11a3.26 3.26 0 0 1-1.22 1.71.71.71 0 0 1-.59 0 .67.67 0 0 1-.34-.49 4.88 4.88 0 0 1 .3-1.24c.33-.86.68-1.72 1.08-2.56q2.56-5.41 5.16-10.82a3.53 3.53 0 0 1 1-1.6.8.8 0 0 1 .59-.06.73.73 0 0 1 .51.71ZM232.44 41.66a5.63 5.63 0 0 1-.28.87c-.53 1.09-1.07 2.18-1.65 3.24-1 1.75-2 3.47-3 5.2a5.11 5.11 0 0 0-.71 2 1.2 1.2 0 0 1-1 1 .89.89 0 0 1-1-.24.78.78 0 0 1-.06-.81c.17-.39.34-.79.54-1.16q2.44-4.65 4.9-9.28a12.2 12.2 0 0 1 1-1.42.64.64 0 0 1 .75-.25c.37.19.45.4.51.85ZM416 340.85a1.3 1.3 0 0 1-.1.41c-2.2 3.44-3.72 7.23-5.6 10.83a6.53 6.53 0 0 1-.67 1.08.72.72 0 0 1-1 .17.62.62 0 0 1-.27-.74 20.06 20.06 0 0 1 .82-2.21c1.19-2.43 2.41-4.86 3.65-7.27a19.72 19.72 0 0 1 1.38-2.16 1.57 1.57 0 0 1 1-.71c.4-.05.86.3.79.6ZM84 97.71c-.29.06-.79-.34-.76-.62a3.75 3.75 0 0 1 .18-.82c.31-.88.6-1.76 1-2.61a56.17 56.17 0 0 1 3.85-7.87 9.72 9.72 0 0 1 1.08-1.32.71.71 0 0 1 1.12-.07.66.66 0 0 1 0 1 16.15 16.15 0 0 0-2.33 4.07c-.74 1.55-1.38 3.14-2.07 4.7-.47 1.05-.94 2.08-1.44 3.11a.77.77 0 0 1-.63.43ZM156.89 341.34c-.09.27-.17.53-.27.79a57.85 57.85 0 0 1-6.15 11 2.79 2.79 0 0 1-.39.5.73.73 0 0 1-1 .13.71.71 0 0 1-.17-1 14.39 14.39 0 0 1 1.27-2.47 50.46 50.46 0 0 0 4.58-8 10.25 10.25 0 0 1 .89-1.45.55.55 0 0 1 .77-.08 2.89 2.89 0 0 1 .47.58ZM213.63 130.76c-.06.15-.16.49-.31.8-1.36 2.83-2.81 5.62-4.38 8.35a4.84 4.84 0 0 1-1.25 1.45.68.68 0 0 1-1-.05.87.87 0 0 1-.25-1 .78.78 0 0 1 .11-.18c1.76-1.78 2.49-4.15 3.64-6.27.55-1 1-2 1.56-3.06a4.13 4.13 0 0 1 .45-.72.67.67 0 0 1 .93-.24 1 1 0 0 1 .5.92ZM409 292a.63.63 0 0 1-.63-.5 1.85 1.85 0 0 1 .2-1.24 19.77 19.77 0 0 1 1.88-3.36c1-1.46 2-2.93 3-4.4a4.86 4.86 0 0 1 1.32-1.39.65.65 0 0 1 .94.18.58.58 0 0 1 .05.78 55.72 55.72 0 0 0-3.58 5.33 35 35 0 0 0-2.28 3.87 1.09 1.09 0 0 1-.9.73ZM442.59 402.5c.22 0 .63.44.5.73a4.47 4.47 0 0 1-.5.91c-1.11 1.56-2.25 3.1-3.21 4.77a27.67 27.67 0 0 0-1.83 3.6 3.35 3.35 0 0 1-.37.76.76.76 0 0 1-.95.25.65.65 0 0 1-.37-.7 7.38 7.38 0 0 1 .92-2.82 45.29 45.29 0 0 1 4.21-6.4 2.34 2.34 0 0 1 1.6-1.1ZM167.68 179.24a1.86 1.86 0 0 1-.26 1.1c-1.51 2.73-3 5.47-4.5 8.21a5.08 5.08 0 0 1-.67 1.07.77.77 0 0 1-1 .25.74.74 0 0 1-.38-.9 7.51 7.51 0 0 1 .58-1.37q1.63-3 3.33-5.94c.42-.74.87-1.46 1.34-2.17a2 2 0 0 1 .62-.57.75.75 0 0 1 .58-.08c.2.06.28.3.36.4ZM316.6 36.58c-.09.23-.14.44-.23.63-1.61 3.09-3.21 6.18-4.84 9.26-.22.42-.47.94-1.11.79-.44-.1-.57-.69-.26-1.48a28.07 28.07 0 0 1 1.28-2.92c.88-1.71 1.81-3.39 2.75-5.06a11.54 11.54 0 0 1 1.24-1.72.62.62 0 0 1 .79 0 2.23 2.23 0 0 1 .38.5ZM471.41 455.77a1.32 1.32 0 0 1-.33 1c-1 1.46-2.05 2.92-3.09 4.36a25.39 25.39 0 0 0-2.65 3.86.73.73 0 0 1-1 .45.92.92 0 0 1-.38-1.29c.72-1.14 1.47-2.27 2.25-3.38 1.22-1.75 2.48-3.48 3.72-5.21a1.47 1.47 0 0 1 .29-.32.64.64 0 0 1 .77-.12.81.81 0 0 1 .42.65ZM291.81 29.77a1.31 1.31 0 0 1-.09.46 14.24 14.24 0 0 1-1.28 2.45c-1.5 2-2.78 4.11-4.09 6.22a4.4 4.4 0 0 1-.38.5c-.21.25-.74.09-.86-.24a1.78 1.78 0 0 1 .25-1.62c.85-1.38 1.66-2.8 2.53-4.18.75-1.21 1.55-2.38 2.33-3.56a1.51 1.51 0 0 1 .79-.68.67.67 0 0 1 .8.65ZM138.4 273.8a1.37 1.37 0 0 1-.11.47q-2.34 4.08-4.72 8.14a1 1 0 0 1-.13.16.68.68 0 0 1-.76.26.81.81 0 0 1-.57-.82 2.27 2.27 0 0 1 .22-.81c.37-.77.72-1.56 1.16-2.29 1-1.58 2-3.14 3-4.7a2.38 2.38 0 0 1 1.08-1 .7.7 0 0 1 .83.59ZM417.69 39.72a2 2 0 0 1-.23.57c-.57.81-1.17 1.6-1.75 2.41-1.2 1.67-2.39 3.35-3.59 5a2.4 2.4 0 0 1-.6.59.58.58 0 0 1-.77-.09.78.78 0 0 1-.19-.57 3.72 3.72 0 0 1 .49-1.16c1.55-2.2 3.13-4.39 4.72-6.57a2.18 2.18 0 0 1 1.14-.92.68.68 0 0 1 .78.74ZM491.33 377.85a.67.67 0 0 1-.67-.75 7 7 0 0 1 1.49-2.32c1.4-1.62 2.6-3.38 3.88-5.08a5.89 5.89 0 0 1 .71-.79.43.43 0 0 1 .58 0 1.08 1.08 0 0 1 .33.52 2.12 2.12 0 0 1-.58 1.56c-1.24 1.73-2.5 3.46-3.79 5.15a13.45 13.45 0 0 1-1.5 1.52 1.45 1.45 0 0 1-.45.19ZM289.88 98.2a.67.67 0 0 1-.56-.55 2.53 2.53 0 0 1 .22-1.24 35.12 35.12 0 0 1 1.95-4.28c.36-.77.74-1.54 1.15-2.29a3.26 3.26 0 0 1 .62-.85.64.64 0 0 1 .8-.07.62.62 0 0 1 .29.72 2 2 0 0 1-.13.41c-1.14 2.45-2.22 4.95-3.42 7.36-.18.39-.39.78-.92.79ZM513.33 110.7a3.53 3.53 0 0 1-.35.76c-.59.81-1.23 1.58-1.83 2.38a17 17 0 0 0-1.95 3.07 3.79 3.79 0 0 1-.58.89.64.64 0 0 1-.79.1.59.59 0 0 1-.41-.67 7.34 7.34 0 0 1 .64-1.81 33.84 33.84 0 0 1 3.94-5.06 1 1 0 0 1 .73-.39.72.72 0 0 1 .6.73ZM433.27 121a7.34 7.34 0 0 1-.36 1.1c-.89 2-2 3.8-2.7 5.82a1.13 1.13 0 0 1-.7.76.8.8 0 0 1-.61-.05c-.15-.09-.33-.36-.29-.51a11.82 11.82 0 0 1 .63-2c.71-1.64 1.47-3.25 2.22-4.86a5.71 5.71 0 0 1 .56-.91.65.65 0 0 1 .72-.31c.4.12.47.48.53.96ZM252.31 97.51a3.13 3.13 0 0 1-.18.7 51.87 51.87 0 0 0-2.45 5.69 1.41 1.41 0 0 1-.24.36.65.65 0 0 1-.75.24.78.78 0 0 1-.53-.62 2 2 0 0 1 .1-.83 36 36 0 0 1 2.79-6 .54.54 0 0 1 .71-.29c.29.09.44.34.55.75ZM67.4 309.06a1 1 0 0 1-.17.79c-.78 1.44-1.56 2.88-2.36 4.3a1.5 1.5 0 0 1-.62.55.7.7 0 0 1-.6-.05.67.67 0 0 1-.29-.52 3 3 0 0 1 .21-.82 14.38 14.38 0 0 1 2.19-4.13 2.42 2.42 0 0 1 .62-.57.73.73 0 0 1 1.02.45Z" class="color000000 svgShape"/><path fill="#fbbc05" d="M276.94 443.09a2.91 2.91 0 0 1 .95 1.58c1.45 4.26 3 8.52 3.51 13a20.61 20.61 0 0 1-.21 7.26 12.49 12.49 0 0 1-6.27 8.31 33.27 33.27 0 0 1-4.28 2c-7.28 2.79-14.58 5.52-21.86 8.3a98.27 98.27 0 0 1-19.67 5.17 29.23 29.23 0 0 1-9.83.16 19.59 19.59 0 0 1-5.88-2 7.09 7.09 0 0 1-2.24-10.87 15.93 15.93 0 0 1 1.94-2c1.33-1.19 2.71-2.33 4.06-3.5a47.94 47.94 0 0 0 9.54-11.27 56.58 56.58 0 0 1 8.42-10.54l1.39-1.34a13.68 13.68 0 0 1 10.66-3.6c.28 0 .57.06.85.1a1.67 1.67 0 0 1 1.55 1.46 10.19 10.19 0 0 0 6.08 7 11.71 11.71 0 0 0 3 1 23.8 23.8 0 0 0 10.22-.18 11.23 11.23 0 0 0 5.55-3.49 8.07 8.07 0 0 0 2.23-5.44 6.3 6.3 0 0 1 .09-.85c.05-.04.11-.1.2-.26Z" class="colorf38704 svgShape"/><path fill="#fbbc05" d="M209.71 486.49c-.18.28-.48.25-.75.28-3.84.4-7.68.82-11.53 1.19a157 157 0 0 1-21.25.33 85.26 85.26 0 0 1-13.24-1.17 31.92 31.92 0 0 1-7.17-2.17 4.68 4.68 0 0 1-3-4.36 6.22 6.22 0 0 1 1-3.47 12.82 12.82 0 0 1 6.41-5.48 30.85 30.85 0 0 1 4.12-1.2 24.21 24.21 0 0 0 12.47-7.16c1.89-2 3.76-3.94 5.63-5.91 3.3-3.49 6.65-6.91 10.21-10.14a22.58 22.58 0 0 1 3.58-2.73 11.62 11.62 0 0 1 6.33-1.72 9.69 9.69 0 0 1 4.09 1.16 2.31 2.31 0 0 1 1 1.11c.65 1.1 1.34 2.19 2 3.31a2.44 2.44 0 0 0 1.46 1.18c4.43 1.35 8.92 2.11 13.53 1a13.11 13.11 0 0 0 4.84-2.23 4.28 4.28 0 0 0 1.92-3.43 9.9 9.9 0 0 1 .1-1.07c.11-1 .38-1.17 1.19-.73a10.17 10.17 0 0 1 1.61 1.06c1.48 1.22 1.48 1.62.09 3a60.79 60.79 0 0 0-9.25 11.53 45.73 45.73 0 0 1-9.86 11.33 85.116 85.116 0 0 0-4.5 4 9.05 9.05 0 0 0-2.77 7.8 7.54 7.54 0 0 0 1.31 3.81c.2.23.49.48.43.88Z" class="colorf38704 svgShape"/><path fill="#4285f4" d="M439.61 443.59a21.18 21.18 0 0 0-3.44-4.91 39.6 39.6 0 0 0-7.22-6.07 75.48 75.48 0 0 0-11.09-6.07 177.62 177.62 0 0 0-31.3-10.32c-4.51-1.11-9.09-1.93-13.49-3.48a28.4 28.4 0 0 0-3.33-.82c-1.14-.24-1.17-.28-.64-1.39.12-.26.25-.51.38-.77a180.93 180.93 0 0 0 7.72-18.61 6 6 0 0 0 .34-1.45.62.62 0 0 0-.49-.62.66.66 0 0 0-.78.19 6.11 6.11 0 0 0-.56 1.15c-.75 2-1.48 4-2.25 6a130.34 130.34 0 0 1-9.87 20.69 52.76 52.76 0 0 1-8.06 10.28 31.86 31.86 0 0 1-12.27 7.67 52.42 52.42 0 0 1-17 3.2 65.55 65.55 0 0 1-14.53-1c-3.14-.69-6.27-1.41-9.44-2a23.94 23.94 0 0 1-5.09-1.62c-3.16-1.33-6.1-3.13-9.21-4.59-.08 0-.11-.19-.17-.29a5.59 5.59 0 0 1 2.23-.73c2.71-.83 2.56-.43 2.89-3.66v-.43c0-2.72 0-5.45-.11-8.16-.27-9.74-.8-19.46-1.41-29.18-.11-1.72-.31-3.43-.4-5.14q-.7-13.31-1.39-26.6c-.08-1.5-.22-3-.36-4.49a8.16 8.16 0 0 0-.3-1.47c-.15-.51-.54-.78-.92-.69s-.52.45-.53.82 0 .71.07 1.07c.28 4.29.51 8.58.87 12.86.3 3.57.38 7.15.51 10.72.11 2.86.17 5.74.45 8.58.82 8.42 1 16.87 1.49 25.3.31 5.29.35 10.59.51 15.89v1.5a1.16 1.16 0 0 1-.94 1.23 33.14 33.14 0 0 1-5.66 1.2c-4.2.47-8.42.71-12.63 1a69.48 69.48 0 0 1-28.32-3.66c-.47-.17-.92-.38-1.38-.58a1.3 1.3 0 0 1-.84-1.15c0-.36-.07-.71-.1-1.07-.32-3.56-.65-7.13-1-10.69-.38-4.21-.8-8.41-1.14-12.62-.37-4.78-.69-9.57-1-14.36s-.63-9.72-.63-14.59q0-15.46.72-30.92a133.91 133.91 0 0 1 1.8-16.85 74.49 74.49 0 0 1 3.57-13.47c2.54-6.73 7.16-11.26 14.33-12.9 1.54-.35 3.07-.7 4.6-1.08a34.14 34.14 0 0 1 11.31-.54 38.83 38.83 0 0 1 12.72 3.68 60 60 0 0 1 20.84 15.87c1.25 1.47 2.5 2.95 3.76 4.42A204.14 204.14 0 0 1 330.7 344c3.1 5.06 6.25 10.1 9.51 15.06a127.74 127.74 0 0 1 7.79 13.82 38.31 38.31 0 0 1 2.2 5.35 2.63 2.63 0 0 0 .29.8.86.86 0 0 0 .56.25.54.54 0 0 0 .63-.45 2.62 2.62 0 0 0 0-1 16.17 16.17 0 0 0-.66-2 90.88 90.88 0 0 0-4.48-9.27c-.21-.39-.66-.75-.43-1.28a.85.85 0 0 1 .85 0c2.21.83 4.43 1.62 6.61 2.52a60.16 60.16 0 0 1 22.95 16.17c.15.16.28.33.43.48.59.58 1.24.52 1.54-.24a23.27 23.27 0 0 0 1.06-3.25 47.17 47.17 0 0 0 1-11.74 185.23 185.23 0 0 0-2.48-25.2c-1.36-8.77-2.43-17.57-3.3-26.41-.35-3.48-.74-7-1.42-10.42a184.88 184.88 0 0 0-5.13-20.59 56 56 0 0 0-3.62-9.37l5.44-3.24a126 126 0 0 0 12.61-8.14c2.9-2.22 5.72-4.55 8.38-7 4-3.73 7.77-7.62 11.73-11.35a68.49 68.49 0 0 0 6.4-7.23 26.82 26.82 0 0 0 5-10.56 12.25 12.25 0 0 0 .43-4.47 25.61 25.61 0 0 0-7.3-15 78.83 78.83 0 0 0-19.16-14.39 116.57 116.57 0 0 0-16.92-7.28A76.16 76.16 0 0 0 357.8 185c-3.68-.57-7.35-1.18-11-1.8-5.08-.86-10.16-1.75-15.28-2.29-1.35-.15-2.71-.22-4.07-.32a2 2 0 0 0-1.25.21.59.59 0 0 0-.12.91c.11.09.22.24.34.25.95.06 1.09.7 1.14 1.48a13.34 13.34 0 0 1-3.65 10.56 4 4 0 0 0-.65.84.58.58 0 0 0 .24.75.73.73 0 0 0 .59.07 6.07 6.07 0 0 0 2.05-1.85 15.05 15.05 0 0 0 3.13-9.82c0-.55-.26-1.13.17-1.77 2.28.29 4.61.53 6.93.89 5.09.78 10.18 1.58 15.26 2.43 3.45.58 6.92 1.13 10.33 1.92a112.47 112.47 0 0 1 19.59 6.89 80.77 80.77 0 0 1 20.22 12.83 36 36 0 0 1 8.57 9.81 24.51 24.51 0 0 1 2.64 8.55 6.89 6.89 0 0 1-.11 2.35 25.1 25.1 0 0 1-4.49 10.57 63.84 63.84 0 0 1-6.76 7.75c-4.07 3.83-8 7.85-12 11.65A103.8 103.8 0 0 1 370.18 272c-4.66 2.67-9.28 5.38-13.79 8.3-1.26.81-2.58 1.53-3.87 2.3-.41.25-.64.75-.46 1.06a.91.91 0 0 0 1.12.34 7 7 0 0 0 2.11-1c1.76-1.09 3.5-2.23 5.26-3.33 3.11-1.94 2.54-2.46 4.16 1.49.1.26.17.54.26.82a172.24 172.24 0 0 1 5.41 19.18c.63 2.94 1.39 5.87 1.78 8.84.84 6.45 1.46 12.94 2.23 19.41.44 3.76 1 7.52 1.5 11.27.6 4.32 1.31 8.63 1.85 13 .61 4.83 1 9.69 1.17 14.56a50.55 50.55 0 0 1-.73 11.33 5.66 5.66 0 0 1-.8 2.6c-.47 0-.63-.38-.87-.63a61.4 61.4 0 0 0-16.15-12.31 74.18 74.18 0 0 0-14.49-5.83 2.54 2.54 0 0 1-1.74-1.09c-3-4.9-6.23-9.61-9.19-14.51a215.2 215.2 0 0 0-12.6-18.93c-4.59-6.06-9.46-11.88-14.49-17.56a59.45 59.45 0 0 0-24.34-16.71 38.3 38.3 0 0 0-18.15-2.11 64.24 64.24 0 0 0-9.4 2.13 18.65 18.65 0 0 0-9.37 6.14c-.27.32-.46.73-.92.8a28.86 28.86 0 0 0-1.8-2.4 33.66 33.66 0 0 0-8-6.48 43.82 43.82 0 0 0-19.08-5.93A9 9 0 0 1 212 285c-5-3.42-10-6.92-14.88-10.56A81.54 81.54 0 0 1 180 257.17a51.85 51.85 0 0 1-7.72-15.23 21.59 21.59 0 0 1-.32-12.08 40.08 40.08 0 0 1 9.6-17.26c4.17-4.53 8.48-8.93 13.08-13 2.09-1.85 4.06-3.84 6.21-5.63 3.19-2.65 6.48-5.18 9.73-7.77.89-.72 1.77-1.45 2.63-2.21a2.73 2.73 0 0 0 .63-.84.74.74 0 0 0-.22-.78.62.62 0 0 0-.78-.11 7.67 7.67 0 0 0-.86.64l-3.17 2.57c-3.56 2.88-7.25 5.62-10.66 8.67-6.08 5.45-12 11.06-17.55 17.07a45.08 45.08 0 0 0-9.36 15.27 24.74 24.74 0 0 0-.2 17 54.13 54.13 0 0 0 7.09 13.9 82.45 82.45 0 0 0 18 18.31c5.11 3.81 10.27 7.53 15.9 11.15-1.4.58-2.54 1-3.62 1.51a27.37 27.37 0 0 0-12.72 13.18 49.79 49.79 0 0 0-3.85 11.57 131.59 131.59 0 0 0-2.12 17.69c-.39 5.57-.68 11.14-1 16.72-.5 8.44-.69 16.88-.51 25.33.11 5.23.29 10.45.66 15.67.4 5.57.47 11.16 1.09 16.71.1 1 .06 1-1 1.15l-10.23 1.2c-6.61.76-13.24 1.44-19.83 2.31q-11.92 1.58-23.76 3.68c-12.11 2.14-24.14 4.68-36 7.87a228.32 228.32 0 0 0-29.47 9.82 102.47 102.47 0 0 0-18.2 9.55 45.35 45.35 0 0 0-7.88 6.62 23.68 23.68 0 0 0-4.06 5.77 14.24 14.24 0 0 0 .35 13.6 22.73 22.73 0 0 0 3.89 5.11 40.54 40.54 0 0 0 5.95 4.91 72.75 72.75 0 0 0 10.65 6 165.66 165.66 0 0 0 27.09 9.47c8.22 2.21 16.54 4 24.92 5.5 5.77 1 11.56 2 17.38 2.74 3.62.46 7.23 1 10.86 1.39 4.76.55 9.53 1.08 14.3 1.53 4.28.4 8.56.73 12.85 1 6.21.41 12.43.84 18.65 1.11s12.59.39 18.89.58c14.9.43 29.79.13 44.68-.39q15.68-.54 31.3-1.77 11.57-.9 23.1-2.14 11.1-1.18 22.15-2.77 13.49-1.94 26.87-4.55c11-2.16 22-4.67 32.74-7.8a203.49 203.49 0 0 0 27.41-9.86 92.14 92.14 0 0 0 15.51-8.69 41.73 41.73 0 0 0 7.35-6.57 22.13 22.13 0 0 0 3.61-5.56 14.16 14.16 0 0 0-.42-12.44Zm-189.19-14.08c.13-.9.23-1 1.09-.82 1.89.38 3.78.69 5.7.94a69.47 69.47 0 0 0 13.9.47h.64c.9 0 1 0 1.26.81a15.09 15.09 0 0 1 .69 2.26 48.37 48.37 0 0 1 1.09 7.19c0 1.28.36 2.54.32 3.84a6.34 6.34 0 0 1-1.75 4.25 10.27 10.27 0 0 1-6.06 3.38 22.06 22.06 0 0 1-9.36-.4 10.22 10.22 0 0 1-4.28-2.34 8.14 8.14 0 0 1-2.62-5 94.42 94.42 0 0 1-.77-8.2 49 49 0 0 1 .15-6.38Zm5.23 22.83a11.71 11.71 0 0 0 3 1 23.8 23.8 0 0 0 10.22-.18 11.23 11.23 0 0 0 5.55-3.49 8.07 8.07 0 0 0 2.23-5.44 6 6 0 0 1 .09-.84c0-.07.06-.13.15-.29a2.91 2.91 0 0 1 .95 1.58c1.45 4.26 3 8.52 3.51 13a20.61 20.61 0 0 1-.21 7.26 12.49 12.49 0 0 1-6.27 8.31 33.27 33.27 0 0 1-4.28 2c-7.28 2.79-14.58 5.52-21.86 8.3a98.27 98.27 0 0 1-19.67 5.17 29.23 29.23 0 0 1-9.83.16 19.59 19.59 0 0 1-5.88-2 7.09 7.09 0 0 1-2.19-10.88 15.93 15.93 0 0 1 1.94-2c1.33-1.19 2.71-2.33 4.06-3.5a47.94 47.94 0 0 0 9.54-11.27 56.58 56.58 0 0 1 8.42-10.54l1.39-1.34a13.68 13.68 0 0 1 10.66-3.6c.28 0 .57.06.85.1a1.67 1.67 0 0 1 1.55 1.46 10.19 10.19 0 0 0 6.08 7.03Zm-48.05-7.29c.65 1.1 1.34 2.19 2 3.31a2.44 2.44 0 0 0 1.46 1.18c4.43 1.35 8.92 2.11 13.53 1a13.11 13.11 0 0 0 4.84-2.23 4.28 4.28 0 0 0 1.92-3.43c0-.35.06-.71.1-1.07.11-1 .38-1.17 1.19-.73a10.17 10.17 0 0 1 1.61 1.06c1.48 1.22 1.48 1.62.09 3a60.79 60.79 0 0 0-9.25 11.53 45.73 45.73 0 0 1-9.85 11.33 85.116 85.116 0 0 0-4.5 4 9.05 9.05 0 0 0-2.77 7.8 7.54 7.54 0 0 0 1.31 3.81c.2.28.49.53.43.93s-.48.25-.75.28c-3.84.4-7.68.82-11.53 1.19a157 157 0 0 1-21.25.33 85.26 85.26 0 0 1-13.24-1.17 31.92 31.92 0 0 1-7.17-2.17 4.68 4.68 0 0 1-3-4.36 6.22 6.22 0 0 1 1-3.47 12.82 12.82 0 0 1 6.41-5.48 30.85 30.85 0 0 1 4.12-1.2 24.21 24.21 0 0 0 12.47-7.16c1.89-2 3.76-3.94 5.63-5.91 3.3-3.49 6.65-6.91 10.21-10.14a22.58 22.58 0 0 1 3.58-2.73 11.62 11.62 0 0 1 6.33-1.72 9.69 9.69 0 0 1 4.09 1.16 2.31 2.31 0 0 1 .99 1.06Zm-2.88-13.88a6.76 6.76 0 0 1-.13-1.27c0-.89 0-1.35 1.18-1a53.91 53.91 0 0 0 13 2.42 31 31 0 0 0 8.32-.44 3 3 0 0 1 .42-.06.62.62 0 0 1 .79.49 38.91 38.91 0 0 1 1.28 6.94c.07 1.64.33 3.26.38 4.91a4.65 4.65 0 0 1-2.87 4.59 14.77 14.77 0 0 1-7.41 1.55 33.12 33.12 0 0 1-6.84-.9 3.6 3.6 0 0 1-2.22-1.54 30.94 30.94 0 0 1-3.15-6.07 49 49 0 0 1-2.75-9.62Zm36.9-5.76a42.75 42.75 0 0 0 6.21 2.28c1 .35 1.06.38 1 1.53s-.22 2.28-.23 3.42a74 74 0 0 0 .52 8.54c.11 1 .07 1.05-.8.94a16.53 16.53 0 0 0-11.4 2.59 8.84 8.84 0 0 0-4.7-3.51 1.07 1.07 0 0 1-.83-1.08c0-.43-.06-.86-.09-1.29a30.23 30.23 0 0 0-1-6.33 12 12 0 0 1-.33-1.67.7.7 0 0 1 .52-.81 71 71 0 0 0 9.72-4.45 1.38 1.38 0 0 1 1.41-.16Zm-51.89-52.72c-.17-8.67.07-17.32.6-26 .21-3.43.35-6.86.58-10.29.43-6.43.83-12.86 1.79-19.23a54.55 54.55 0 0 1 3.78-13.6 28.26 28.26 0 0 1 7.92-10.79 22.42 22.42 0 0 1 7.28-4 14.36 14.36 0 0 1 5.94-.47 34.9 34.9 0 0 1 6.33 1.15 51.59 51.59 0 0 1 9.77 3.79 34.8 34.8 0 0 1 8.8 6.77 9.18 9.18 0 0 1 1.18 1.53 2.58 2.58 0 0 1 .11 3.14 19.47 19.47 0 0 0-2.14 5.13 98.49 98.49 0 0 0-4 18.85c-.86 7.84-1.14 15.7-1.29 23.57-.16 8.8-.49 17.61.06 26.41.36 5.78.59 11.58 1.13 17.35.39 4.13.65 8.27 1 12.41.45 4.77 1 9.53 1.47 14.3.1 1 .13 1-.79 1.47a79.37 79.37 0 0 1-7.74 3.68 28.33 28.33 0 0 1-10.54 2 54.38 54.38 0 0 1-10.35-1.3A80 80 0 0 1 195 423a1.84 1.84 0 0 1-1.18-1.57c-.57-4.11-1.31-8.2-1.84-12.31-.42-3.33-.75-6.69-.91-10.05-.47-8.8-1.16-17.58-1.34-26.38Zm247.94 84a26.09 26.09 0 0 1-5.74 6.9 56.83 56.83 0 0 1-8.88 6.37 124.92 124.92 0 0 1-19.2 9 259.92 259.92 0 0 1-30.53 9.38c-11.39 2.82-22.89 5.11-34.46 7-7.27 1.21-14.56 2.31-21.87 3.25-6.95.89-13.93 1.65-20.91 2.34q-11.74 1.17-23.54 1.94c-6.78.45-13.58.69-20.38 1-8.94.45-17.89.53-26.84.65-10.45.15-20.91-.13-31.36-.45-5.58-.16-11.16-.44-16.73-.76-5.08-.3-10.14-.69-15.21-1.11-5.35-.44-10.7-.89-16-1.47-5.19-.56-10.37-1.23-15.54-1.95-5-.69-9.92-1.43-14.85-2.28-15.1-2.61-30-5.92-44.47-11.14A109.54 109.54 0 0 1 56.39 479a55 55 0 0 1-8.62-5.62 27.53 27.53 0 0 1-5.49-5.71 14.15 14.15 0 0 1-2.62-6.5 13 13 0 0 1 1.53-7.67 25.2 25.2 0 0 1 5.16-6.55 55.18 55.18 0 0 1 9.67-7.1 120.62 120.62 0 0 1 18-8.57 258 258 0 0 1 31.98-9.89c11.32-2.8 22.75-5.08 34.26-7q11.74-1.93 23.53-3.39 10.65-1.35 21.34-2.34c1.28-.12 2.57-.13 3.86-.23 1.08-.08 1.17 0 1.34 1.05.66 4.17 1.33 8.34 1.95 12.51a2.52 2.52 0 0 0 1.53 2.14c1.77.78 3.5 1.64 5.25 2.43a12.83 12.83 0 0 0 2.21.83 1.82 1.82 0 0 1 1.57 1.94 27.23 27.23 0 0 0 .79 4.65 54.33 54.33 0 0 0 2.38 7.72 19.47 19.47 0 0 0-3.91-.55 12.6 12.6 0 0 0-6.91 2 29.6 29.6 0 0 0-4.53 3.6q-5.68 5.4-11 11.16-2.19 2.36-4.47 4.64a21.86 21.86 0 0 1-10.87 6.14c-1.12.25-2.22.56-3.32.88a14.8 14.8 0 0 0-8.27 6.14 8.33 8.33 0 0 0-1.49 4.2 6.24 6.24 0 0 0 3.53 6.33 23.69 23.69 0 0 0 4.83 1.77 51.43 51.43 0 0 0 10.6 1.59c6.22.29 12.44.71 18.67.46 3.22-.13 6.44-.27 9.65-.6 3.77-.39 7.56-.61 11.32-1.13a7.05 7.05 0 0 1 4.27.66 22.36 22.36 0 0 0 10.26 1.79 62.52 62.52 0 0 0 9.14-1.22c6.81-1.18 13.26-3.52 19.69-5.92q9-3.37 18-6.87a36 36 0 0 0 3.91-1.77 14.55 14.55 0 0 0 8.1-12.78 28.77 28.77 0 0 0-1-9.14c-.76-2.83-1.63-5.63-2.55-8.41a13.2 13.2 0 0 0-2.81-5 2 2 0 0 1-.6-1.1 55 55 0 0 0-1.68-8.52l3.56-.34c1.57-.14 3.14-.24 4.71-.43a4.34 4.34 0 0 1 2.28.35 53.9 53.9 0 0 1 5.39 2.66 76.66 76.66 0 0 0 7.52 3.65 33.16 33.16 0 0 0 6.63 1.72c3.71.77 7.46 1.35 11.2 2a21.29 21.29 0 0 0 2.77.26c2.15 0 4.3 0 6.45.08a53 53 0 0 0 18.1-3.06 34.82 34.82 0 0 0 14.34-9.12 56.77 56.77 0 0 0 8.2-11c.54-.93 1-1.87 1.59-2.8.42-.73.58-.83 1.37-.65a28.48 28.48 0 0 1 3.94 1 79 79 0 0 0 10.38 2.74 204.42 204.42 0 0 1 30.5 9.41 88.94 88.94 0 0 1 12.29 6.1 44.64 44.64 0 0 1 7.41 5.48 23.71 23.71 0 0 1 4.14 4.91 12.74 12.74 0 0 1 .33 13.65Z" class="color000000 svgShape"/><path fill="#34a853" d="M224.41 167h.88c-.2.26-.42.56-.79.49s-.43-.25-.09-.49Z" class="color6f5b5b svgShape"/><path fill="#000301" d="M224.41 484.71a24.81 24.81 0 0 1-5.26-.44c-.86-.21-1.26-.61-1.06-1 .28-.59.82-.45 1.3-.41a39.51 39.51 0 0 0 4.06.37 40.38 40.38 0 0 0 13.62-2.67 42.54 42.54 0 0 0 4.32-1.9 164 164 0 0 0 14.54-8.28q2-1.29 4-2.53a29.7 29.7 0 0 1 10.81-4 2.86 2.86 0 0 1 1.48-.07c.36.13.66.31.65.74a.64.64 0 0 1-.49.62 15 15 0 0 1-1.67.39 29 29 0 0 0-11.28 4.47 183.41 183.41 0 0 1-15.9 9.36 46.35 46.35 0 0 1-14.13 4.9 47.29 47.29 0 0 1-4.99.45Z" class="color030200 svgShape"/><path fill="#000501" d="M194.22 483.12a125.86 125.86 0 0 1-16.46-1c-4.1-.54-8.21-1.07-12.28-1.82a7.83 7.83 0 0 1-1.44-.38.63.63 0 0 1-.46-.83.7.7 0 0 1 .64-.48 2.29 2.29 0 0 1 .64 0c5.56 1 11.16 1.67 16.77 2.28a111.56 111.56 0 0 0 15.62.6c.93 0 1.86-.05 2.79-.05a6.32 6.32 0 0 1 1.06.09.63.63 0 0 1 .54.58.65.65 0 0 1-.39.69 4.71 4.71 0 0 1-1.89.32Z" class="color050300 svgShape"/><path fill="#070b08" d="M261.7 237.68c0 .55-.6.94-1 .76a7.11 7.11 0 0 1-.88-.59 13.9 13.9 0 0 0-7-2.47 8.13 8.13 0 0 0-4.58.74c-.39.19-.83.3-1.16-.11s0-.92.51-1.22a8.66 8.66 0 0 1 4.53-1.06 15 15 0 0 1 7.9 2.28 8.45 8.45 0 0 1 1.31 1.08 1.52 1.52 0 0 1 .37.59Z" class="color0b0707 svgShape"/><path fill="#080c09" d="M242.35 203.24a6.28 6.28 0 0 1-2.59-.52 2.44 2.44 0 0 1-.62-.54.58.58 0 0 1 .36-.83 3.28 3.28 0 0 1 1 .07 7.75 7.75 0 0 0 6.16-.91 25.47 25.47 0 0 0 2.47-1.67c.3-.2.57-.43.87-.62a.62.62 0 0 1 .78 0 .74.74 0 0 1 .25.94 1 1 0 0 1-.21.37 12.15 12.15 0 0 1-8.47 3.71Z" class="color0c0808 svgShape"/><path fill="#0b0e0c" d="M266.59 203.86c-.81-.08-1.45-.15-2.09-.2-3.12-.21-5.21-2-6.85-4.48a1.38 1.38 0 0 1-.15-.4.64.64 0 0 1 .26-.74.67.67 0 0 1 .8 0 8.76 8.76 0 0 1 .71.78 17.38 17.38 0 0 0 1.29 1.42 6 6 0 0 0 3.59 1.69l2.34.21a6 6 0 0 1 1.05.13.71.71 0 0 1 .59.76.79.79 0 0 1-.66.73 4.63 4.63 0 0 1-.88.1Z" class="color0e0b0b svgShape"/><path fill="#101311" d="M251.07 221.73a5.74 5.74 0 0 1 .76-2.19.57.57 0 0 1 .75-.21c.28.12.52.33.48.63-.07.56-.25 1.11-.33 1.67a1.12 1.12 0 0 0 .9 1.45c.48.13 1 .14 1.47.24a.64.64 0 0 1 .5.61.73.73 0 0 1-.42.7c-1.7.87-4.18-.74-4.11-2.9Z" class="color131010 svgShape"/></svg>