<svg xmlns="http://www.w3.org/2000/svg" width="512" height="512" fill-rule="evenodd" clip-rule="evenodd" image-rendering="optimizeQuality" shape-rendering="geometricPrecision" text-rendering="geometricPrecision" viewBox="0 0 512 512"><rect width="512" height="512" fill="none"/><polygon fill="#e6e6e6" points="256 106 321 143 386 181 386 256 386 331 321 369 256 406 191 369 126 331 126 256 126 181 191 143"/><polygon fill="#d0cecf" points="256 406 191 369 126 331 126 256 126 181 191 143 256 106"/><polygon fill="#fff" points="256 131 310 162 364 193 364 256 364 319 310 350 256 381 202 350 148 319 148 256 148 193 202 162"/><path fill="#e43e2b" d="M197 225c3,3 7,6 11,9 1,1 10,8 11,9 2,-7 6,-12 10,-16 4,-4 9,-8 15,-10 13,-5 28,-2 38,6 1,1 1,1 2,2l19 -19c-1,-1 -4,-4 -6,-5 -24,-18 -58,-17 -82,2 -4,3 -7,6 -10,10 -2,2 -7,9 -8,12z"/><path fill="#2ba24c" d="M197 286c0,3 5,10 7,13 9,11 22,19 37,23 16,4 36,2 50,-6 2,-1 10,-6 11,-8l-13 -11c-1,0 -2,-1 -3,-2 0,0 -1,-1 -1,-1 -1,0 -1,-1 -2,-1 -1,-1 -1,-2 -3,-2 -1,1 -2,2 -4,2 -13,7 -30,6 -42,-3 -3,-3 -3,-3 -6,-6 -2,-1 -4,-4 -5,-6 -2,-3 -4,-8 -4,-9 -4,3 -8,6 -11,9 -2,1 -10,8 -11,8z"/><path fill="#3c7ced" d="M280 291c2,0 2,1 3,2 1,0 1,1 2,1 0,0 1,1 1,1 1,1 2,2 3,2l13 11c3,-2 9,-9 10,-12 3,-4 5,-9 7,-15 2,-5 3,-11 4,-18 0,-3 0,-17 -2,-20l-64 0 0 27 37 0c1,3 -3,10 -5,12 -2,3 -4,5 -6,7 -1,1 -2,2 -3,2z"/><path fill="#f0b401" d="M197 286c1,0 9,-7 11,-8 3,-3 7,-6 11,-9 -1,-3 -2,-5 -2,-13 0,-4 1,-10 2,-13 -1,-1 -10,-8 -11,-9 -4,-3 -8,-6 -11,-9 -2,2 -5,11 -6,14 -2,11 -2,23 0,34 1,3 4,12 6,13z"/></svg>